<svg width="133" height="67" viewBox="0 0 133 67" fill="none" xmlns="http://www.w3.org/2000/svg">
<path d="M28.1089 51.5776C28.2502 51.6676 28.3215 51.8304 28.3215 52.066C28.3215 52.2867 28.2581 52.4417 28.132 52.5323C28.0109 52.6173 27.8084 52.6602 27.5252 52.6602H25.8489V55.5465C25.8489 55.8871 25.7732 56.1449 25.6211 56.3205C25.4691 56.5012 25.2493 56.5912 24.961 56.5912C24.6879 56.5912 24.4753 56.5083 24.3239 56.3434C24.1719 56.1827 24.0962 55.9078 24.0962 55.5165V52.3453C24.0962 52.1846 24.1193 52.0475 24.1647 51.9318C24.205 51.8118 24.2656 51.7161 24.347 51.6462C24.4277 51.5762 24.5185 51.5233 24.6201 51.4884C24.721 51.4584 24.8349 51.4434 24.9617 51.4434H27.4495C27.7421 51.4427 27.9619 51.4876 28.1089 51.5776Z" fill="white"/>
<path d="M31.6886 55.4626C31.6886 55.8682 31.6129 56.1582 31.4609 56.331C31.3088 56.5038 31.0767 56.5902 30.7632 56.5902C30.4497 56.5902 30.2199 56.5109 30.0728 56.3531C29.9258 56.1953 29.853 55.9161 29.853 55.5155V52.3443C29.853 52.0386 29.9366 51.8116 30.1031 51.6637C30.2703 51.5159 30.4901 51.4424 30.7632 51.4424H32.1131C32.4417 51.4424 32.7451 51.4867 33.0233 51.5738C33.3015 51.6616 33.5429 51.7844 33.7476 51.9422C33.9522 52.1001 34.1115 52.2978 34.2254 52.5356C34.3392 52.7734 34.3962 53.0383 34.3962 53.3283C34.3962 53.6839 34.2924 53.9931 34.0848 54.2566C33.8773 54.5193 33.6041 54.7164 33.2654 54.8464C32.9267 54.9771 32.5448 55.0421 32.1203 55.0421H31.6879V55.4626H31.6886ZM32.6449 53.2233C32.6449 53.0383 32.6269 52.8912 32.5916 52.7834C32.5563 52.6756 32.4943 52.5942 32.4057 52.5392C32.317 52.4842 32.2212 52.4478 32.1174 52.43C32.0136 52.4121 31.8709 52.4035 31.6886 52.4035V54.0566C31.8298 54.0566 31.9552 54.0445 32.0641 54.0188C32.1729 53.9938 32.2723 53.9509 32.3639 53.891C32.4547 53.831 32.5246 53.7446 32.5721 53.6317C32.6204 53.5203 32.6449 53.384 32.6449 53.2233Z" fill="white"/>
<path d="M40.3884 51.6452C40.5347 51.7851 40.6082 52.0158 40.6082 52.3364V52.6599C40.6082 52.7999 40.5902 53.1412 40.5548 53.6817C40.5145 54.248 40.4842 54.5965 40.464 54.7264C40.4136 55.0321 40.3379 55.2977 40.2363 55.5234C40.1347 55.744 39.9934 55.9397 39.8118 56.1096C39.6295 56.2853 39.3974 56.4152 39.1142 56.5002C38.831 56.5852 38.4944 56.628 38.1053 56.628C37.7918 56.628 37.5006 56.588 37.2333 56.5081C36.9652 56.4331 36.7526 56.3403 36.5962 56.2303C36.4391 56.1153 36.318 56.0025 36.2322 55.8918C36.1414 55.7819 36.096 55.6862 36.096 55.6062C36.096 55.5262 36.1263 55.4512 36.1868 55.3805C36.2524 55.3156 36.3389 55.2827 36.4448 55.2827C36.5205 55.2827 36.6092 55.3027 36.7101 55.3427C36.816 55.3827 36.9147 55.4277 37.0062 55.4777C37.1021 55.5276 37.216 55.5726 37.3478 55.6126C37.474 55.6526 37.6008 55.6726 37.7269 55.6726C38.0455 55.6726 38.2703 55.6048 38.4022 55.4698C38.5334 55.3398 38.5997 55.1513 38.5997 54.9064L38.6069 54.8914V54.7936V54.6957C38.4959 54.7057 38.3842 54.7107 38.2732 54.7107C37.4689 54.7107 36.8773 54.5408 36.4982 54.1995C36.1241 53.8588 35.9368 53.3454 35.9368 52.6585V52.335C35.9368 52.0694 36.0175 51.8537 36.1796 51.6887C36.336 51.5188 36.5364 51.4331 36.7785 51.4331C37.0769 51.4331 37.3017 51.4881 37.4538 51.5988C37.6102 51.7087 37.6887 51.9322 37.6887 52.2679V52.8013C37.6938 52.9619 37.719 53.0898 37.7644 53.1847C37.8148 53.2797 37.8804 53.3454 37.9619 53.3804C38.0426 53.4204 38.1464 53.4404 38.2725 53.4404C38.3986 53.4404 38.5024 53.4254 38.5838 53.3954C38.6645 53.3654 38.7229 53.3176 38.7582 53.2526C38.7986 53.1876 38.8238 53.1226 38.8339 53.0569C38.849 52.9919 38.8569 52.907 38.8569 52.8013V52.26C38.8569 52.0901 38.8771 51.9472 38.9175 51.8316C38.9629 51.7166 39.0285 51.6309 39.1149 51.5759C39.2057 51.5209 39.2973 51.4831 39.3881 51.4631C39.4839 51.4431 39.5978 51.4331 39.7297 51.4331C40.0215 51.4345 40.2421 51.5045 40.3884 51.6452Z" fill="white"/>
<path d="M44.5453 53.2003C44.5453 52.9547 44.3154 52.8318 43.8549 52.8318C43.7591 52.8318 43.6286 52.8404 43.4643 52.8583C43.3 52.8761 43.1796 52.8847 43.104 52.8847C42.74 52.8847 42.5577 52.669 42.5577 52.2384C42.5577 51.7928 43.0838 51.5693 44.1353 51.5693C44.8177 51.5693 45.3287 51.6793 45.6674 51.9C46.0061 52.1206 46.1755 52.4084 46.1755 52.764C46.1755 53.2603 45.9578 53.6559 45.5233 53.9515C45.8166 54.1072 46.0227 54.2686 46.1416 54.4364C46.2605 54.6042 46.3196 54.8463 46.3196 55.1619C46.3196 55.5975 46.1467 55.9524 45.8 56.2251C45.4534 56.4986 44.9893 56.635 44.4084 56.635C43.6805 56.635 43.158 56.5608 42.8424 56.4129C42.526 56.2651 42.3682 56.0409 42.3682 55.7403C42.3682 55.4896 42.4186 55.3183 42.5202 55.2254C42.6211 55.1326 42.7631 55.0862 42.9447 55.0862C43.0355 55.0862 43.1775 55.0962 43.3692 55.1162C43.5616 55.1362 43.7079 55.1462 43.8088 55.1462C44.3601 55.1462 44.6354 55.0462 44.6354 54.8455C44.6354 54.7106 44.5821 54.6163 44.4761 54.5635C44.3702 54.5106 44.1698 54.4849 43.8773 54.4849C43.5839 54.4849 43.3764 54.4471 43.2553 54.3721C43.1342 54.2971 43.073 54.1565 43.073 53.9515C43.073 53.6409 43.2805 53.4852 43.6949 53.4852C43.963 53.4852 44.1612 53.4731 44.2902 53.4474C44.4192 53.4224 44.4934 53.3938 44.5143 53.361C44.5345 53.3295 44.5453 53.276 44.5453 53.2003Z" fill="white"/>
<path d="M52.8353 51.6154C52.9816 51.7254 53.0551 51.9489 53.0551 52.2845V55.4707C53.0551 55.8763 52.9816 56.1669 52.8353 56.3426C52.6883 56.5133 52.4663 56.5982 52.168 56.5982C51.8746 56.5982 51.6599 56.5183 51.523 56.3576C51.3867 56.2027 51.3183 55.9242 51.3183 55.5236L51.3104 54.6745L51.3024 53.9076L49.7703 56.1548C49.7249 56.2198 49.6816 56.2748 49.6413 56.3205L49.6261 56.3433C49.4849 56.514 49.2593 56.599 48.9509 56.599C48.6575 56.599 48.4428 56.519 48.3059 56.3583C48.1696 56.2034 48.1012 55.9249 48.1012 55.5243L48.0781 52.3531C48.0781 52.0424 48.1588 51.8146 48.321 51.669C48.4774 51.524 48.6878 51.4512 48.9509 51.4512C49.2543 51.4512 49.477 51.5062 49.6182 51.6168C49.7645 51.7268 49.838 51.9503 49.838 52.2859V54.1575L50.7785 52.7744L51.4004 51.8725L51.4235 51.8346C51.4992 51.6947 51.6008 51.5968 51.7269 51.5419C51.848 51.4819 51.995 51.4519 52.1665 51.4519C52.4613 51.4497 52.684 51.5047 52.8353 51.6154Z" fill="white"/>
<path d="M59.9045 55.4629C59.9045 55.8685 59.831 56.1584 59.6847 56.3312C59.5376 56.504 59.3157 56.5904 59.0173 56.5904C58.724 56.5904 58.5092 56.5112 58.3723 56.3534C58.2354 56.1956 58.1676 55.9163 58.1676 55.5158L58.1597 54.6667H56.6124V55.4636C56.6124 55.8742 56.5418 56.1649 56.3998 56.3355C56.2578 56.5062 56.033 56.5912 55.7245 56.5912C55.4312 56.5912 55.2165 56.5119 55.0795 56.3541C54.9426 56.1963 54.8749 55.9171 54.8749 55.5165L54.8518 52.3452C54.8518 52.0346 54.9318 51.8068 55.0911 51.6611C55.2503 51.5162 55.4615 51.4434 55.7245 51.4434C56.0279 51.4434 56.2514 51.4983 56.3955 51.609C56.5396 51.719 56.6117 51.9425 56.6117 52.2781V53.5406H58.1518V52.3459C58.1518 52.1353 58.1907 51.9618 58.2693 51.8232C58.3478 51.6854 58.4487 51.5876 58.5727 51.5305C58.6966 51.4726 58.8444 51.4441 59.0166 51.4441C59.3099 51.4441 59.5312 51.4991 59.6803 51.6097C59.8295 51.7197 59.9037 51.9432 59.9037 52.2788V55.4629H59.9045Z" fill="white"/>
<path d="M64.7811 52.8549C64.7811 52.7499 64.7371 52.6592 64.6485 52.5842C64.5598 52.5092 64.4553 52.4714 64.3335 52.4714C64.0907 52.4714 63.891 52.6078 63.7346 52.8813C63.5775 53.1548 63.4997 53.464 63.4997 53.8096C63.4997 54.0752 63.5501 54.3144 63.651 54.5272C63.7519 54.74 63.899 54.9093 64.0907 55.0342C64.2831 55.1592 64.505 55.222 64.758 55.222C64.9446 55.222 65.1248 55.1856 65.2963 55.1128C65.4679 55.0399 65.6077 54.96 65.7136 54.8721C65.8195 54.7843 65.9298 54.7043 66.0437 54.6315C66.1575 54.5587 66.257 54.5222 66.3435 54.5222C66.4545 54.5222 66.551 54.5658 66.6317 54.6536C66.7125 54.7415 66.7528 54.8329 66.7528 54.9278C66.7528 55.0328 66.7211 55.1556 66.6577 55.2963C66.5943 55.4363 66.4948 55.5855 66.3579 55.7433C66.2217 55.9011 66.0624 56.0468 65.8801 56.1789C65.6978 56.3117 65.4715 56.4217 65.2012 56.5095C64.931 56.5974 64.6463 56.6409 64.3479 56.6409C63.9537 56.6409 63.5883 56.5824 63.2518 56.4645C62.9152 56.3467 62.6234 56.1789 62.3754 55.9611C62.1275 55.7433 61.933 55.4691 61.7917 55.1385C61.6504 54.8079 61.5791 54.4373 61.5791 54.0259C61.5791 53.214 61.8241 52.5728 62.3149 52.1022C62.805 51.6316 63.4478 51.396 64.2413 51.396C64.6456 51.396 65.0196 51.4638 65.3641 51.5988C65.7078 51.7338 65.981 51.9223 66.1835 52.1622C66.386 52.4028 66.4869 52.6656 66.4869 52.9513C66.4869 53.2819 66.3759 53.5811 66.1532 53.8496C65.9305 54.1174 65.6423 54.2516 65.2884 54.2516C65.0859 54.2516 64.9043 54.1966 64.7421 54.0859C64.58 53.976 64.4993 53.8182 64.4993 53.6125C64.4993 53.5175 64.5461 53.3847 64.6398 53.214C64.7342 53.0455 64.7811 52.9256 64.7811 52.8549Z" fill="white"/>
<path d="M72.0023 54.1173C72.2603 54.1473 72.4953 54.2765 72.7079 54.5043C72.9205 54.7321 73.0264 55.0242 73.0264 55.3798C73.0264 55.7254 73.0012 55.9825 72.9507 56.1503C72.9003 56.3181 72.8145 56.4331 72.6927 56.4959C72.5717 56.5587 72.3864 56.5901 72.1392 56.5901C71.9418 56.5901 71.7789 56.563 71.6499 56.5073C71.5209 56.4523 71.4265 56.3709 71.3652 56.2631C71.3047 56.1553 71.2744 56.016 71.2744 55.8461C71.2744 55.6254 71.2658 55.4412 71.2478 55.2934C71.2298 55.1456 71.2074 55.0277 71.1793 54.9399C71.1512 54.8521 71.1101 54.7857 71.0539 54.7407C70.9984 54.6957 70.9437 54.6671 70.891 54.6543C70.8377 54.6421 70.7656 54.6357 70.6748 54.6357H70.2727V55.4697C70.2727 55.8703 70.1941 56.1574 70.0378 56.3302C69.8807 56.503 69.6508 56.5894 69.3474 56.5894C69.054 56.5894 68.8378 56.508 68.6988 56.3452C68.5597 56.1824 68.4905 55.9082 68.4905 55.5226V52.3885C68.4905 52.0729 68.5496 51.8358 68.6685 51.678C68.7874 51.5202 68.9805 51.4409 69.2486 51.4409C69.405 51.4409 69.5355 51.4509 69.6392 51.4709C69.743 51.4909 69.8439 51.5273 69.9426 51.5802C70.0414 51.633 70.1142 51.7151 70.1624 51.8279C70.2107 51.9408 70.2345 52.085 70.2345 52.26C70.2345 52.4156 70.2331 52.5892 70.2309 52.782C70.228 52.9748 70.2273 53.1112 70.2273 53.1918C70.2273 53.2568 70.2439 53.3118 70.2763 53.3575C70.3095 53.4025 70.3599 53.4389 70.4284 53.4668C70.4968 53.4946 70.5812 53.5082 70.6828 53.5082C70.9004 53.5082 71.0453 53.4232 71.1188 53.2525C71.1923 53.0826 71.229 52.7341 71.229 52.2078C71.229 51.9472 71.2997 51.7544 71.4416 51.6294C71.5829 51.5045 71.8106 51.4416 72.1241 51.4416C72.4628 51.4416 72.6906 51.5066 72.8066 51.6373C72.9226 51.768 72.981 52.0008 72.981 52.3364C72.981 52.8876 72.8837 53.3147 72.6891 53.6174C72.4938 53.9209 72.2646 54.0873 72.0023 54.1173Z" fill="white"/>
<path d="M78.7068 56.3379C78.3075 56.5357 77.8586 56.635 77.3606 56.635C76.8626 56.635 76.4151 56.5364 76.018 56.3379C75.6209 56.1401 75.3038 55.8431 75.066 55.4475C74.8281 55.0519 74.7092 54.5856 74.7092 54.0493C74.7092 53.2374 74.9557 52.5926 75.4486 52.1141C75.9416 51.6357 76.5801 51.3965 77.3635 51.3965C78.1476 51.3965 78.7868 51.6357 79.2826 52.1141C79.7784 52.5926 80.0256 53.2374 80.0256 54.0493C80.0256 54.5856 79.9053 55.0511 79.6653 55.4475C79.426 55.8438 79.1061 56.1401 78.7068 56.3379ZM77.3642 55.5381C77.5357 55.5381 77.6842 55.4632 77.8081 55.3125C77.9321 55.1618 78.0207 54.9769 78.0733 54.7562C78.1267 54.5356 78.1533 54.3007 78.1533 54.05C78.1533 53.7944 78.1252 53.553 78.0697 53.3245C78.0142 53.0967 77.9242 52.9025 77.8002 52.7418C77.6762 52.5811 77.5307 52.5012 77.3642 52.5012C77.202 52.5012 77.0608 52.5811 76.9397 52.7418C76.8186 52.9025 76.7271 53.0974 76.6666 53.3281C76.606 53.5587 76.5758 53.7994 76.5758 54.0493C76.5758 54.2999 76.6046 54.5356 76.663 54.7555C76.7213 54.9762 76.8122 55.1611 76.9361 55.3118C77.0601 55.4625 77.2028 55.5381 77.3642 55.5381Z" fill="white"/>
<path d="M84.8505 53.5392C85.1185 53.5392 85.3066 53.582 85.4155 53.667C85.5243 53.752 85.5783 53.8977 85.5783 54.1026C85.5783 54.2733 85.5142 54.3946 85.3852 54.4668C85.2562 54.5396 85.0551 54.576 84.782 54.576H83.5532V55.3729L85.1993 55.3808C85.4825 55.3808 85.6857 55.4222 85.8097 55.505C85.9336 55.5879 85.9956 55.7343 85.9956 55.9449C85.9956 56.1856 85.9235 56.3534 85.7794 56.4483C85.6353 56.5433 85.4162 56.5912 85.1236 56.5912H82.6661C82.3677 56.5912 82.1494 56.5119 82.0103 56.3541C81.8712 56.1963 81.802 55.9171 81.802 55.5165V52.3452C81.802 51.744 82.0903 51.4434 82.6668 51.4434H85.1243C85.4176 51.4434 85.636 51.4883 85.7801 51.5783C85.9243 51.6683 85.9963 51.8311 85.9963 52.0667C85.9963 52.2874 85.9343 52.4416 85.8104 52.5288C85.6864 52.6166 85.4832 52.6601 85.2 52.6601H83.5468V53.5392H84.8505Z" fill="white"/>
<path d="M94.9305 53.7719C95.1381 54.0376 95.2419 54.3482 95.2419 54.7038C95.2419 54.9944 95.1835 55.2572 95.0675 55.4929C94.9565 55.7335 94.7972 55.9313 94.5897 56.0863C94.3872 56.2469 94.1472 56.369 93.869 56.4547C93.5908 56.5447 93.2874 56.5897 92.9588 56.5897H91.601C91.5556 56.5897 91.5102 56.5876 91.4648 56.5818H91.4569H91.4417C91.2443 56.5568 91.08 56.484 90.9488 56.364C90.7816 56.2191 90.6987 55.9934 90.6987 55.6878V52.5166C90.6987 52.116 90.7722 51.8354 90.9185 51.6747C91.0547 51.5297 91.2623 51.4519 91.5405 51.4419H91.601H94.0888C94.3821 51.4419 94.5997 51.4869 94.741 51.5769C94.8873 51.6668 94.9608 51.8296 94.9608 52.0653C94.9608 52.2859 94.8974 52.4409 94.7713 52.5316C94.6502 52.6166 94.4477 52.6594 94.1645 52.6594H92.5336V52.99H92.966C93.3905 52.99 93.7724 53.055 94.1111 53.1857C94.4506 53.3163 94.723 53.5113 94.9305 53.7719ZM93.4366 55.2451C93.4719 55.1401 93.4899 54.9944 93.4899 54.8095C93.4899 54.6488 93.4668 54.5117 93.4214 54.396C93.371 54.2861 93.3004 54.2004 93.2088 54.1404C93.1173 54.0804 93.0193 54.0376 92.9134 54.0126C92.8024 53.9876 92.6755 53.9747 92.5343 53.9747V55.6278C92.7166 55.6278 92.8608 55.6178 92.9667 55.5978C93.0676 55.5828 93.1613 55.5479 93.247 55.4929C93.3378 55.4379 93.4013 55.3551 93.4366 55.2451Z" fill="white"/>
<path d="M101.818 51.6154C101.964 51.7254 102.038 51.9489 102.038 52.2845V55.4707C102.038 55.8763 101.964 56.1669 101.818 56.3426C101.671 56.5133 101.449 56.5982 101.151 56.5982C100.857 56.5982 100.643 56.5183 100.506 56.3576C100.369 56.2027 100.301 55.9242 100.301 55.5236L100.293 54.6745L100.285 53.9076L98.7529 56.1548C98.7075 56.2198 98.6643 56.2748 98.6239 56.3205L98.6088 56.3433C98.4676 56.514 98.242 56.599 97.9335 56.599C97.6402 56.599 97.4254 56.519 97.2885 56.3583C97.1523 56.2034 97.0838 55.9249 97.0838 55.5243L97.0608 52.3531C97.0608 52.0424 97.1415 51.8146 97.3037 51.669C97.46 51.524 97.6705 51.4512 97.9335 51.4512C98.2369 51.4512 98.4596 51.5062 98.6009 51.6168C98.7472 51.7268 98.8207 51.9503 98.8207 52.2859V54.1575L99.7612 52.7744L100.383 51.8725L100.406 51.8346C100.482 51.6947 100.583 51.5968 100.71 51.5419C100.831 51.4819 100.978 51.4519 101.149 51.4519C101.443 51.4497 101.666 51.5047 101.818 51.6154Z" fill="white"/>
<path d="M106.99 52.8549C106.99 52.7499 106.946 52.6592 106.858 52.5842C106.769 52.5092 106.665 52.4714 106.543 52.4714C106.3 52.4714 106.1 52.6078 105.944 52.8813C105.787 53.1548 105.709 53.464 105.709 53.8096C105.709 54.0752 105.759 54.3144 105.86 54.5272C105.961 54.74 106.108 54.9093 106.3 55.0342C106.492 55.1592 106.714 55.222 106.967 55.222C107.154 55.222 107.334 55.1856 107.506 55.1128C107.677 55.0399 107.817 54.96 107.923 54.8721C108.029 54.7843 108.139 54.7043 108.253 54.6315C108.367 54.5587 108.466 54.5222 108.553 54.5222C108.664 54.5222 108.76 54.5658 108.841 54.6536C108.922 54.7415 108.962 54.8329 108.962 54.9278C108.962 55.0328 108.93 55.1556 108.867 55.2963C108.803 55.4363 108.704 55.5855 108.567 55.7433C108.431 55.9011 108.272 56.0468 108.089 56.1789C107.907 56.3117 107.681 56.4217 107.41 56.5095C107.14 56.5974 106.855 56.6409 106.557 56.6409C106.163 56.6409 105.798 56.5824 105.461 56.4645C105.124 56.3467 104.833 56.1789 104.585 55.9611C104.337 55.7433 104.142 55.4691 104.001 55.1385C103.86 54.8079 103.788 54.4373 103.788 54.0259C103.788 53.214 104.033 52.5728 104.524 52.1022C105.014 51.6316 105.657 51.396 106.45 51.396C106.855 51.396 107.229 51.4638 107.573 51.5988C107.917 51.7338 108.19 51.9223 108.393 52.1622C108.595 52.4028 108.696 52.6656 108.696 52.9513C108.696 53.2819 108.585 53.5811 108.362 53.8496C108.14 54.1174 107.851 54.2516 107.498 54.2516C107.295 54.2516 107.114 54.1966 106.951 54.0859C106.789 53.976 106.708 53.8182 106.708 53.6125C106.708 53.5175 106.755 53.3847 106.849 53.214C106.943 53.0455 106.99 52.9256 106.99 52.8549Z" fill="white"/>
<path d="M113.93 55.4629C113.93 55.7485 113.895 55.9749 113.824 56.1434C113.754 56.3112 113.656 56.4276 113.533 56.4926C113.409 56.5576 113.246 56.5904 113.043 56.5904C112.745 56.5904 112.529 56.5111 112.395 56.3533C112.261 56.1955 112.191 55.9163 112.186 55.5157L112.171 52.7422H111.526C111.208 52.7422 110.968 52.6922 110.809 52.5916C110.65 52.4916 110.57 52.3138 110.57 52.0581C110.57 51.9032 110.602 51.7804 110.665 51.6897C110.728 51.5997 110.823 51.5354 110.95 51.4983C111.076 51.4612 111.246 51.4419 111.458 51.4419H114.704C114.988 51.4419 115.192 51.4919 115.318 51.5918C115.444 51.6918 115.508 51.8653 115.508 52.1103C115.508 52.2759 115.471 52.4045 115.398 52.4973C115.324 52.5901 115.227 52.6537 115.106 52.6887C114.985 52.7237 114.828 52.7415 114.635 52.7415H113.93V55.4629H113.93Z" fill="white"/>
<path d="M118.944 55.4626C118.944 55.8682 118.869 56.1582 118.716 56.331C118.564 56.5038 118.332 56.5902 118.019 56.5902C117.705 56.5902 117.475 56.5109 117.328 56.3531C117.181 56.1953 117.109 55.9161 117.109 55.5155V52.3443C117.109 52.0386 117.192 51.8116 117.359 51.6637C117.526 51.5159 117.746 51.4424 118.019 51.4424H119.369C119.697 51.4424 120.001 51.4867 120.279 51.5738C120.557 51.6616 120.798 51.7844 121.003 51.9422C121.208 52.1001 121.367 52.2978 121.481 52.5356C121.595 52.7734 121.652 53.0383 121.652 53.3283C121.652 53.6839 121.548 53.9931 121.34 54.2566C121.133 54.5193 120.86 54.7164 120.521 54.8464C120.182 54.9771 119.8 55.0421 119.376 55.0421H118.943V55.4626H118.944ZM119.9 53.2233C119.9 53.0383 119.882 52.8912 119.846 52.7834C119.811 52.6756 119.749 52.5942 119.661 52.5392C119.572 52.4842 119.476 52.4478 119.372 52.43C119.269 52.4121 119.126 52.4035 118.943 52.4035V54.0566C119.085 54.0566 119.21 54.0445 119.319 54.0188C119.428 53.9938 119.527 53.9509 119.619 53.891C119.71 53.831 119.779 53.7446 119.827 53.6317C119.876 53.5203 119.9 53.384 119.9 53.2233Z" fill="white"/>
<path d="M127.204 56.3379C126.805 56.5357 126.356 56.635 125.858 56.635C125.36 56.635 124.912 56.5364 124.515 56.3379C124.118 56.1401 123.801 55.8431 123.563 55.4475C123.325 55.0519 123.206 54.5856 123.206 54.0493C123.206 53.2374 123.453 52.5926 123.946 52.1141C124.439 51.6357 125.077 51.3965 125.861 51.3965C126.645 51.3965 127.284 51.6357 127.78 52.1141C128.276 52.5926 128.523 53.2374 128.523 54.0493C128.523 54.5856 128.402 55.0511 128.162 55.4475C127.923 55.8438 127.604 56.1401 127.204 56.3379ZM125.861 55.5381C126.033 55.5381 126.181 55.4632 126.305 55.3125C126.429 55.1618 126.518 54.9769 126.57 54.7562C126.624 54.5356 126.65 54.3007 126.65 54.05C126.65 53.7944 126.622 53.553 126.567 53.3245C126.511 53.0967 126.421 52.9025 126.297 52.7418C126.173 52.5811 126.028 52.5012 125.861 52.5012C125.699 52.5012 125.558 52.5811 125.437 52.7418C125.316 52.9025 125.224 53.0974 125.164 53.3281C125.103 53.5587 125.073 53.7994 125.073 54.0493C125.073 54.2999 125.102 54.5356 125.16 54.7555C125.218 54.9762 125.309 55.1611 125.433 55.3118C125.557 55.4625 125.7 55.5381 125.861 55.5381Z" fill="white"/>
<path d="M45.7374 47.7039H41.0674V30.9209H45.7374V47.7039Z" fill="white"/>
<path d="M51.7362 47.7039H49.5713V30.9209H52.606L62.898 42.4476V30.9209H65.0506V47.7039H62.0159L51.7355 36.1894V47.7039H51.7362Z" fill="white"/>
<path d="M85.0112 39.6744V39.8957C84.9953 40.5484 84.9269 41.2246 84.8051 41.9237C84.6833 42.6228 84.5132 43.3219 84.2934 44.0217C84.0736 44.7208 83.8113 45.4127 83.5057 46.0961C83.2001 46.7802 82.8571 47.4343 82.4766 48.0598C82.0961 48.6853 81.6867 49.2716 81.2471 49.82C80.8075 50.3677 80.3455 50.8511 79.8591 51.271L78.1064 50.2684C78.381 49.81 78.6296 49.3109 78.853 48.771C79.0764 48.2312 79.2782 47.6656 79.4591 47.0751C79.6393 46.4845 79.7942 45.879 79.924 45.257C80.053 44.6358 80.1611 44.0181 80.2475 43.404C80.334 42.7906 80.3981 42.1858 80.4414 41.5917C80.4846 40.9975 80.5063 40.432 80.5063 39.8957C80.5063 39.4758 80.5041 39.0003 80.5005 38.4683C80.4962 37.9363 80.4652 37.3943 80.4061 36.8423C80.347 36.291 80.2511 35.7526 80.1178 35.2278C79.9845 34.7036 79.7863 34.2352 79.524 33.8232C79.2609 33.4112 78.9244 33.0812 78.5122 32.8328C78.1006 32.5843 77.589 32.46 76.9771 32.46C76.4359 32.46 75.9711 32.5514 75.5833 32.7342C75.1949 32.917 74.8655 33.1619 74.5953 33.4683C74.325 33.7753 74.1088 34.1309 73.9481 34.5344C73.7874 34.9386 73.662 35.3642 73.5719 35.8105C73.4818 36.2575 73.4228 36.7081 73.3954 37.1622C73.368 37.6171 73.3543 38.0462 73.3543 38.4504V41.7023H78.4235V43.6254H73.3543V47.7042H68.6843V39.1731C68.6843 37.9534 68.8803 36.8187 69.2724 35.7698C69.6644 34.7208 70.2194 33.8096 70.9364 33.037C71.6542 32.2636 72.5161 31.6581 73.5244 31.2189C74.5319 30.7798 75.6554 30.5605 76.8942 30.5605C77.7331 30.5605 78.5194 30.6791 79.2523 30.9162C79.9852 31.1532 80.654 31.4796 81.2579 31.8952C81.8618 32.3108 82.4009 32.8042 82.8751 33.3755C83.3493 33.9467 83.7457 34.5701 84.0628 35.2463C84.3806 35.9226 84.6213 36.6374 84.7863 37.3907C84.9528 38.1434 85.027 38.9046 85.0112 39.6744Z" fill="white"/>
<path d="M91.1867 35.1868L89.8693 47.7039H86.9873L89.8693 30.9209H94.1393L98.103 43.7293L102.114 30.9209H106.384L108.784 47.7039H104.032L102.632 35.5131L99.3274 47.7039H95.0574L91.1867 35.1868Z" fill="white"/>
<path d="M129.32 39.2893C129.32 40.641 129.086 41.8592 128.615 42.9432C128.144 44.0272 127.494 44.9462 126.663 45.6996C125.832 46.4529 124.847 47.032 123.71 47.4362C122.573 47.8404 121.342 48.0425 120.017 48.0425C118.691 48.0425 117.46 47.8404 116.323 47.4362C115.186 47.032 114.202 46.4536 113.37 45.6996C112.54 44.9462 111.889 44.0272 111.418 42.9432C110.948 41.8592 110.713 40.6417 110.713 39.2893C110.713 37.9139 110.946 36.6843 111.412 35.6003C111.879 34.5163 112.526 33.5995 113.353 32.8497C114.181 32.0999 115.163 31.5251 116.299 31.1245C117.437 30.7246 118.675 30.5239 120.017 30.5239C121.358 30.5239 122.597 30.7239 123.734 31.1245C124.871 31.5251 125.853 32.0999 126.68 32.8497C127.507 33.5995 128.154 34.5163 128.621 35.6003C129.087 36.6843 129.32 37.9139 129.32 39.2893ZM124.568 39.2893C124.568 38.7765 124.545 38.2517 124.498 37.7161C124.451 37.1799 124.364 36.6593 124.239 36.1544C124.114 35.6496 123.943 35.1754 123.727 34.7327C123.512 34.29 123.235 33.9037 122.898 33.573C122.561 33.2431 122.155 32.9825 121.681 32.7918C121.206 32.6012 120.651 32.5062 120.017 32.5062C119.374 32.5062 118.813 32.6012 118.335 32.7918C117.856 32.9825 117.448 33.2403 117.112 33.5666C116.774 33.893 116.5 34.2778 116.288 34.7206C116.076 35.1633 115.909 35.6353 115.788 36.1366C115.666 36.6379 115.582 37.1584 115.535 37.6983C115.488 38.2381 115.464 38.7687 115.464 39.2893C115.464 39.802 115.488 40.3268 115.535 40.8624C115.582 41.3987 115.668 41.9171 115.793 42.4184C115.919 42.9196 116.09 43.3916 116.305 43.8344C116.521 44.2771 116.797 44.6641 117.135 44.994C117.472 45.3247 117.878 45.5867 118.352 45.781C118.826 45.9752 119.381 46.0723 120.016 46.0723C120.635 46.0723 121.176 45.9731 121.639 45.7752C122.101 45.5774 122.501 45.309 122.839 44.9712C123.176 44.6334 123.456 44.2407 123.68 43.7944C123.903 43.3474 124.08 42.8739 124.209 42.3727C124.338 41.8714 124.43 41.3572 124.485 40.8281C124.541 40.2997 124.568 39.7863 124.568 39.2893Z" fill="white"/>
<path d="M37.8683 36.9642C37.6485 36.2301 37.3408 35.5538 36.9451 34.9362C36.5488 34.3185 36.0746 33.7608 35.5218 33.2638C34.969 32.7668 34.3615 32.3448 33.6985 31.9992C33.0355 31.6535 32.3285 31.3872 31.5754 31.2008C30.8223 31.0144 30.0461 30.9209 29.2462 30.9209H27.0856C27.1058 30.9338 27.1267 30.9459 27.1476 30.9587C27.8733 31.4208 28.514 31.9827 29.0674 32.6383C29.5114 32.7297 29.9178 32.8682 30.2875 33.0539C31.0125 33.4195 31.6107 33.9122 32.0813 34.5341C32.5519 35.1561 32.8985 35.8766 33.122 36.6964C33.3454 37.5161 33.4571 38.3802 33.4571 39.2892C33.4571 40.1904 33.3432 41.0494 33.1162 41.8649C32.8885 42.6804 32.5375 43.4016 32.0633 44.0271C31.5891 44.6526 30.9888 45.1496 30.2638 45.5188C29.538 45.888 28.6776 46.0722 27.6816 46.0722H26.4463V42.7204C26.5112 41.4079 26.4716 40.3139 26.4161 39.517C26.2813 37.5804 26.0132 36.9135 25.9015 36.6293C25.5736 35.7973 25.1059 35.1554 24.4724 34.6662C23.8699 34.2021 23.1341 33.9764 22.2239 33.9764C22.0697 33.9764 21.9212 33.9836 21.7771 33.9979V47.7039H29.2462C30.0461 47.7039 30.8244 47.6089 31.5812 47.4183C32.3379 47.2276 33.0477 46.9577 33.71 46.6085C34.3723 46.2586 34.9784 45.8337 35.5276 45.3325C36.0767 44.8312 36.5488 44.2699 36.9451 43.6487C37.3408 43.0274 37.6485 42.349 37.8683 41.615C38.0874 40.8809 38.1977 40.1054 38.1977 39.2899C38.1977 38.4744 38.0874 37.6982 37.8683 36.9642Z" fill="white"/>
<path d="M20.2694 51.9026C19.0377 50.9664 17.2144 50.2259 14.7994 49.6811C13.4121 49.3726 12.1207 48.7927 10.9258 47.9394C9.72949 47.0861 8.76163 45.955 8.02005 44.5454C7.27848 43.1358 6.90805 41.4948 6.90805 39.6232C6.90805 37.5146 7.22443 35.9036 7.85862 34.7896C8.4921 33.6764 9.43041 33.1194 10.6743 33.1194C11.3676 33.1194 11.9773 33.2972 12.5034 33.6528C13.0287 34.0084 13.4294 34.5061 13.7047 35.1452C13.9793 35.785 14.117 36.5077 14.117 37.3132V39.5168C14.117 41.2706 14.4463 42.8223 15.1057 44.1726C15.7651 45.523 16.7114 46.5777 17.9459 47.336C18.8273 47.878 19.8168 48.225 20.9122 48.3793V45.7001C20.3976 45.5537 19.9321 45.3173 19.5155 44.9903C18.7624 44.3983 18.2003 43.6221 17.8299 42.6624C17.4587 41.7026 17.2742 40.6544 17.2742 39.5168C17.2742 38.3322 17.4652 37.2546 17.8479 36.2828C18.2299 35.3116 18.792 34.5411 19.5336 33.9727C20.2744 33.4043 21.1709 33.1194 22.2238 33.1194C23.3236 33.1194 24.2504 33.41 25.0035 33.9898C25.9922 34.7511 26.421 35.6551 26.7071 36.3178C27.3385 37.778 27.3406 39.1348 27.3442 41.3306C27.3449 41.9169 27.3276 42.4039 27.3111 42.7409V45.2152H27.6815C28.1391 45.2152 28.5614 45.1695 28.9484 45.0809C29.151 44.7789 29.3354 44.4583 29.5026 44.1191C30.1736 42.7566 30.5094 41.2228 30.5094 39.5168C30.5094 37.7873 30.1736 36.2413 29.5019 34.8789C29.2158 34.299 28.8807 33.7735 28.4973 33.3008L28.4022 33.1879C27.9719 32.6774 27.479 32.2289 26.9349 31.8512C26.9284 31.8469 26.9219 31.8419 26.9154 31.8369C26.8376 31.7833 26.759 31.7305 26.679 31.6798C26.679 31.6798 26.6365 31.6541 26.6228 31.6455L26.6142 31.6398C25.4193 30.8972 24.0688 30.5244 22.5618 30.5244C21.0275 30.5244 19.6964 30.8386 18.57 31.4663C17.4436 32.0947 16.5802 33.048 15.9813 34.3276H15.8379C15.4553 33.048 14.7915 32.0947 13.8474 31.4663C12.9026 30.8386 11.7611 30.5244 10.4221 30.5244C9.03476 30.5244 7.8334 30.8857 6.81725 31.6084C5.80038 32.3318 5.02349 33.38 4.48587 34.7539C3.94752 36.1285 3.67871 37.7516 3.67871 39.6232C3.67871 41.2578 3.92446 42.7566 4.41524 44.1191C4.90602 45.4815 5.62381 46.6369 6.57006 47.5845C7.51558 48.5328 8.63479 49.2069 9.9284 49.6104V49.7525C8.7328 49.7525 7.5372 49.7525 6.3416 49.7525C5.65408 49.7103 5.07177 50.2509 5.06024 50.905C5.04871 51.5734 5.63895 52.1411 6.3416 52.0982H12.0429C13.4042 52.0982 14.6049 52.2517 15.6441 52.5602C16.6833 52.868 17.4962 53.3007 18.0807 53.8577C18.4345 54.194 18.6904 54.5682 18.8482 54.9788C18.9786 55.3187 19.0183 55.6222 19.0312 55.8307C18.9556 57.0339 19.9515 57.8916 20.794 57.7966C21.5414 57.7123 22.2534 56.8697 22.1518 55.8307C22.128 54.1476 21.5003 52.8387 20.2694 51.9026Z" fill="white"/>
<path d="M49.7508 25.5902C50.1616 25.4903 50.4679 25.3696 50.9853 25.1654C51.4048 24.9997 51.7464 24.8483 51.9799 24.7405C52.3128 24.4363 52.6465 24.1328 52.9794 23.8286C52.7366 23.8722 52.4937 23.9157 52.2508 23.9593C52.2508 23.9557 52.2501 23.9507 52.2501 23.9507C52.2501 23.9486 52.2501 23.9471 52.2501 23.9471C52.2501 23.9429 52.2501 23.9393 52.2494 23.935H30.8209C30.1477 23.8965 29.6541 24.4541 29.711 24.959C29.7607 25.4039 30.2393 25.808 30.8209 25.7602H48.4586C49.0107 25.7452 49.451 25.6631 49.7508 25.5902Z" fill="white"/>
<path d="M82.372 23.9357C82.3814 24.5398 82.4037 25.1547 82.3691 25.7609H103.907C104.448 25.7931 104.904 25.3575 104.898 24.8383C104.892 24.3263 104.44 23.9043 103.907 23.9357C96.7286 23.9357 89.55 23.9357 82.372 23.9357Z" fill="white"/>
<path d="M53.1704 20.3796C53.1329 19.9618 53.1134 19.5391 53.1134 19.1121C53.1134 11.2058 59.6053 4.77265 67.5853 4.77265C75.5646 4.77265 82.0572 11.2051 82.0572 19.1121C82.0572 19.789 82.0082 20.4539 81.9159 21.1058C82.1415 21.2979 82.3678 21.485 82.5955 21.6678C82.9061 21.7649 83.2153 21.8806 83.523 22.0141C83.6967 21.0665 83.7868 20.0961 83.7868 19.1121C83.7868 14.824 82.1018 10.7931 79.0419 7.76108C75.9819 4.72909 71.9137 3.05957 67.586 3.05957C63.2584 3.05957 59.1902 4.72909 56.1302 7.76108C53.0702 10.7931 51.3853 14.824 51.3853 19.1121C51.3853 20.1111 51.4775 21.0965 51.6569 22.0584C52.209 21.5578 52.7127 20.998 53.1704 20.3796Z" fill="white"/>
<path fill-rule="evenodd" clip-rule="evenodd" d="M62.3373 21.231C62.5139 19.9428 60.2524 18.6774 62.4605 19.3101C62.5989 19.3479 63.2223 20.3919 63.53 19.7828C63.592 19.6686 62.8375 19.0666 62.8994 18.6089C62.9845 17.9383 60.9378 18.1361 61.0379 17.0236C61.1071 16.3295 60.0304 17.0465 59.7378 17.4121C58.7995 18.586 59.5072 18.7995 57.4605 20.1256C55.4599 21.4216 56.1907 19.6686 53.798 22.8626C52.7055 24.3265 51.8515 24.9135 49.9749 25.2562C49.3205 25.3783 48.6589 25.554 48.0132 25.7361C50.875 24.7228 53.0983 22.9997 54.6989 20.5833C57.1448 18.586 58.9919 16.8479 60.238 15.3612C61.0149 14.6829 61.6152 14.6829 62.0224 15.3612C62.3611 16.0089 62.8382 16.2381 63.4457 16.0318C64.2226 16.0853 65.0766 16.9315 66.0077 18.5703C68.5769 16.1539 70.339 14.3165 71.309 13.0512C71.9014 12.0979 72.7093 12.3421 73.7398 13.7903C76.2708 17.5485 79.0101 20.5826 81.949 22.8919C83.4877 23.3189 84.9953 24.2644 86.4727 25.7354C81.6334 25.7354 79.2097 25.7354 79.2097 25.7354C77.9486 23.9366 76.9944 22.9912 76.3559 22.9076C73.386 22.5949 71.2708 23.6924 70.024 26.201C70.3397 23.8302 72.2242 21.9622 74.6169 21.6501C73.6937 18.586 69.8395 22.1 72.2163 19.6836C72.5702 19.3251 73.4472 19.4322 73.6396 18.7688C73.7852 18.2732 74.3012 17.8005 73.4552 17.4956C73.1856 17.4042 71.9936 16.6194 72.7474 16.1546C73.5863 15.6362 73.0091 14.5615 72.2632 14.0809C71.5093 13.6082 70.909 16.1317 69.5858 16.6501C68.7398 16.9858 66.1778 19.3565 65.7389 20.142C65.3771 20.7825 61.8999 24.068 61.2772 24.4565C61.2231 24.4943 59.1 26.0803 59.0842 26.1031C59.3768 24.4872 60.3072 23.5189 61.6613 22.7648C62.2984 22.4049 62.2443 21.9243 62.3373 21.231Z" fill="white"/>
</svg>
