<?xml version="1.0" encoding="utf-8"?>
<!-- Svg Vector Icons : http://www.onlinewebfonts.com/icon -->
<!DOCTYPE svg PUBLIC "-//W3C//DTD SVG 1.1//EN" "http://www.w3.org/Graphics/SVG/1.1/DTD/svg11.dtd">
<svg version="1.1" xmlns="http://www.w3.org/2000/svg" xmlns:xlink="http://www.w3.org/1999/xlink" x="0px" y="0px" viewBox="0 0 1000 1000" enable-background="new 0 0 1000 1000" xml:space="preserve">
<metadata> Svg Vector Icons : http://www.onlinewebfonts.com/icon </metadata>
<g><path d="M969.6,500.3H821.8v147c0,11.2-9.1,20.3-20.4,20.3h-42.1c-11.3,0-20.5-9.1-20.5-20.3v-147H591.1c-11.3,0-20.4-9.1-20.4-20.3v-41.9c0-11.2,9.2-20.4,20.4-20.4h147.8v-147c0-11.2,9.2-20.3,20.5-20.3h42.1c11.3,0,20.4,9.1,20.4,20.3v147h147.8c11.3,0,20.4,9.1,20.4,20.4v41.9C990,491.2,980.8,500.3,969.6,500.3z M526.7,140.8c-3.5,2.5-7.7,3.8-12,3.8h-20.8c26.9,32,42.6,77.7,42.6,129c0,56.6-28.8,110.3-81.2,151.1c-40.5,31.4-42.1,40-42.1,57.9c0.5,9.9,28.8,42,59.8,63.8c72.5,51,99.5,101.1,99.5,184.6c0,87.1-66.6,162.6-169.6,192.3c-33.1,9.5-68.8,14.4-106.3,14.4c-41.7,0-81.9-4.8-119.3-14.2c-72.4-18.2-126-52.7-151-97.1C15.5,807.4,10,786.9,10,765.7c0-21.9,5.3-44,15.6-65.9C65.3,615.6,170,559,285.8,559c1.2,0,2.3,0,3.3,0c-9.4-16.5-14-33.5-14-51.5c0-8.9,1.2-18.1,3.6-27.3c-121.6-2.8-212.5-91.3-212.5-208.1c0-82.4,66.2-162.7,161-195.2c28.4-9.7,57.3-14.7,85.7-14.7h259.9c8.9,0,16.7,5.7,19.4,14.1c2.8,8.4-0.3,17.6-7.5,22.7L526.7,140.8z M144.7,737.9c0,66.1,66.5,117.9,151.4,117.9c112,0,168.7-38.4,168.7-114.1c0-7.2-0.9-14.6-2.7-22c-7.5-29.4-34.6-47.8-75.6-75.6c-5.6-3.8-11.5-7.8-17.6-11.9c-17.7-5.4-36.5-8.2-55.8-8.4l-2.4,0C222.3,623.8,144.7,677.1,144.7,737.9z M402.3,281.5c-10.1-76.6-65.1-140.3-122.6-142l-2.3,0c-20.3,0-38.5,8.3-52.3,24c-21.4,24.3-30.4,62.7-24.8,105.5c10,76.5,66.2,142.7,122.5,144.4h0.9c0,0,0,0,0,0c21.2,0,39-8.3,52.9-24C398.4,364.7,408,324.4,402.3,281.5z"/></g>
</svg>