<svg xmlns="http://www.w3.org/2000/svg" width="48" height="48"><path fill="#828c8e" d="M26.978 7.506V7.5A.75.75 0 0126.98 6c.014 0 .026.007.04.009 8.267.02 14.963 6.716 14.971 14.98 0 .004.003.007.003.011a.75.75 0 01-1.5.006h-.003c0-7.444-6.061-13.5-13.513-13.5zm19.7 26.812a4.495 4.495 0 01.977 4.905A4.502 4.502 0 0143.495 42H22.838l-4.686 4.682A4.492 4.492 0 0114.968 48a4.492 4.492 0 01-3.185-1.318l-10.51-10.5a4.495 4.495 0 010-6.363l4.685-4.682L5.959 4.5A4.5 4.5 0 0110.462 0a4.5 4.5 0 013.186 1.319zM20.762 39.85L8.111 27.212c-.013.014-.017.033-.03.046l-4.685 4.683a1.494 1.494 0 000 2.12l10.51 10.5a1.5 1.5 0 002.123 0l4.687-4.682c.013-.013.032-.018.045-.03zM40.925 39L8.962 7.068 8.96 25.137c0 .231-.082.447-.133.67l13.34 13.326c.223-.051.439-.133.672-.133zm3.63-2.56L11.525 3.438a1.492 1.492 0 00-1.635-.323A1.494 1.494 0 008.962 4.5v.447L43.048 39h.446c.61 0 1.154-.363 1.387-.926a1.494 1.494 0 00-.325-1.634zM25.479 1.5A1.5 1.5 0 0126.98 0c.014 0 .026.007.04.009 11.584.02 20.968 9.403 20.977 20.98 0 .004.003.007.003.011a1.5 1.5 0 01-3.001.006h-.003c0-9.926-8.083-18-18.018-18V3a1.502 1.502 0 01-1.5-1.5z"/></svg>