<svg xmlns="http://www.w3.org/2000/svg" width="48" height="46"><path fill="#828c8e" d="M48 12.5V41c0 2.482-2.018 4.5-4.5 4.5h-39A4.505 4.505 0 010 41V5C0 2.518 2.02.5 4.5.5H36c.795 0 1.559.316 2.121.878l9 9A3 3 0 0148 12.5zM45 14h-6a4.5 4.5 0 01-4.5-4.5h.001v-6h-30A1.5 1.5 0 003 5v36a1.5 1.5 0 001.5 1.5h39A1.5 1.5 0 0045 41zm0-1.5l-9-9v6c0 1.654 1.346 3 3 3zm-22.5-2.25a.75.75 0 01.75-.75h7.5a.75.75 0 110 1.5h-7.5a.75.75 0 01-.75-.75zm0 4.5a.75.75 0 01.75-.75h7.5a.75.75 0 110 1.5h-7.5a.75.75 0 01-.75-.75zm.75 3.75h18a.75.75 0 110 1.5h-18a.75.75 0 110-1.5zM42 28.25a.75.75 0 01-.75.75H6.75a.75.75 0 010-1.5h34.5c.415 0 .75.335.75.75zm0 4.5a.75.75 0 01-.75.75H6.75a.75.75 0 010-1.5h34.5c.415 0 .75.334.75.75zm0 4.5a.75.75 0 01-.75.75H6.75a.75.75 0 010-1.5h34.5c.415 0 .75.334.75.75zm0-13.5a.75.75 0 01-.75.75H6.75a.75.75 0 110-1.5h34.5a.75.75 0 01.75.75zM6 18.5v-9C6 8.67 6.671 8 7.5 8H18c.83 0 1.5.671 1.5 1.5v9A1.5 1.5 0 0118 20H7.5A1.5 1.5 0 016 18.5zM9 17h7.5v-6H9z"/></svg>