<svg xmlns="http://www.w3.org/2000/svg" width="48" height="44"><path fill="#828c8e" d="M44.045 4.45c-5.27-5.267-13.82-5.267-19.09 0L3.07 26.054c-4.092 4.09-4.092 10.745 0 14.835 4.093 4.088 10.755 4.088 14.848 0l21.885-21.604a7.485 7.485 0 000-10.595 7.506 7.506 0 00-10.606 0L12.744 25.122a1.499 1.499 0 102.121 2.121l16.453-16.436a4.51 4.51 0 016.364 0 4.497 4.497 0 010 6.359L15.797 38.768a7.504 7.504 0 01-10.606 0 7.484 7.484 0 010-10.594L26.862 6.782c4.102-4.097 10.752-4.097 14.848 0a10.476 10.476 0 01.003 14.833l-16.24 16.222a1.49 1.49 0 000 2.118 1.498 1.498 0 002.122 0l16.45-16.433c5.273-5.267 5.273-13.805 0-19.071z"/></svg>